Rogue 2007 720p BRRip H264 AAC-Rx(Phoenix-RG).mp4
      Format : MPEG-4 / AVC
      File size : 1.46 GiB
      Duration : 1h 39mn
      Bit rate : 1 800 Kbps
      Width : 1 280 pixels
      Height : 720 pixels
      Display aspect ratio : 16/9
      Frame rate : 23.976 fps
      Resolution : 24 bits
      Colorimetry : 4:2:0
      Scan type : Progressive
      Bits/(Pixel*Frame) : 0.081
      Stream size : 1.24 GiB (85%)
     
      
AUDIO:
      Format : AAC / LC
      Duration : 1h 39mn
      Bit rate : 315 Kbps
      Channel(s) : 6 channels
      Channel positions : Front: L C R, Rear: L R, LFE
      Sampling rate : 48.0 KHz
      Resolution : 16 bits
      Stream size : 223 MiB (15%)

SCREEN:
 
http://img97.imageshack.us/img97/9459/vlcsnap2010090808h21m07.jpg
 
http://img713.imageshack.us/img713/6320/vlcsnap2010090808h14m22.jpg
 
http://img843.imageshack.us/img843/8563/vlcsnap2010090808h12m31.jpg